<?xml version="1.0" encoding="UTF-8" standalone="no"?>
<!DOCTYPE svg PUBLIC "-//W3C//DTD SVG 1.1//EN"
 "http://www.w3.org/Graphics/SVG/1.1/DTD/svg11.dtd">
<!-- Generated by graphviz version 12.1.1 (20240910.0053)
 -->
<!-- Title: INFRA Pages: 1 -->
<svg width="477pt" height="404pt"
 viewBox="0.00 0.00 476.96 404.00" xmlns="http://www.w3.org/2000/svg" xmlns:xlink="http://www.w3.org/1999/xlink">
<g id="graph0" class="graph" transform="scale(1 1) rotate(0) translate(4 400)">
<title>INFRA</title>
<polygon fill="white" stroke="none" points="-4,4 -4,-400 472.96,-400 472.96,4 -4,4"/>
<!-- mlr&#45;dev&#45;rds&#45;ns -->
<g id="node1" class="node">
<title>mlr&#45;dev&#45;rds&#45;ns</title>
<path fill="#e6e6e6" stroke="black" stroke-width="2" d="M244.06,-72C244.06,-72 90.99,-72 90.99,-72 84.99,-72 78.99,-66 78.99,-60 78.99,-60 78.99,-12 78.99,-12 78.99,-6 84.99,0 90.99,0 90.99,0 244.06,0 244.06,0 250.06,0 256.06,-6 256.06,-12 256.06,-12 256.06,-60 256.06,-60 256.06,-66 250.06,-72 244.06,-72"/>
<text text-anchor="middle" x="167.53" y="-40.2" font-family="Arial" font-size="14.00">mlr&#45;dev&#45;rds&#45;ns</text>
<text text-anchor="middle" x="167.53" y="-23.4" font-family="Arial" font-size="14.00">(kubernetes::Namespace)</text>
</g>
<!-- mlr&#45;dev&#45;rds&#45;cm&#45;snt -->
<g id="node2" class="node">
<title>mlr&#45;dev&#45;rds&#45;cm&#45;snt</title>
<path fill="#e6e6e6" stroke="black" stroke-width="2" d="M240.56,-180C240.56,-180 94.49,-180 94.49,-180 88.49,-180 82.49,-174 82.49,-168 82.49,-168 82.49,-120 82.49,-120 82.49,-114 88.49,-108 94.49,-108 94.49,-108 240.56,-108 240.56,-108 246.56,-108 252.56,-114 252.56,-120 252.56,-120 252.56,-168 252.56,-168 252.56,-174 246.56,-180 240.56,-180"/>
<text text-anchor="middle" x="167.53" y="-148.2" font-family="Arial" font-size="14.00">mlr&#45;dev&#45;rds&#45;cm&#45;snt</text>
<text text-anchor="middle" x="167.53" y="-131.4" font-family="Arial" font-size="14.00">(kubernetes::ConfigMap)</text>
</g>
<!-- mlr&#45;dev&#45;rds&#45;cm&#45;snt&#45;&gt;mlr&#45;dev&#45;rds&#45;ns -->
<g id="edge1" class="edge">
<title>mlr&#45;dev&#45;rds&#45;cm&#45;snt&#45;&gt;mlr&#45;dev&#45;rds&#45;ns</title>
<path fill="none" stroke="black" d="M167.53,-107.7C167.53,-99.93 167.53,-91.57 167.53,-83.43"/>
<polygon fill="black" stroke="black" points="171.03,-83.66 167.53,-73.66 164.03,-83.66 171.03,-83.66"/>
</g>
<!-- mlr&#45;dev&#45;rds&#45;sts -->
<g id="node3" class="node">
<title>mlr&#45;dev&#45;rds&#45;sts</title>
<path fill="#b7e0ff" stroke="black" stroke-width="2" d="M456.96,-288C456.96,-288 310.1,-288 310.1,-288 304.1,-288 298.1,-282 298.1,-276 298.1,-276 298.1,-228 298.1,-228 298.1,-222 304.1,-216 310.1,-216 310.1,-216 456.96,-216 456.96,-216 462.96,-216 468.96,-222 468.96,-228 468.96,-228 468.96,-276 468.96,-276 468.96,-282 462.96,-288 456.96,-288"/>
<text text-anchor="middle" x="383.53" y="-256.2" font-family="Arial" font-size="14.00">mlr&#45;dev&#45;rds&#45;sts</text>
<text text-anchor="middle" x="383.53" y="-239.4" font-family="Arial" font-size="14.00">(kubernetes::StatefulSet)</text>
</g>
<!-- mlr&#45;dev&#45;rds&#45;sts&#45;&gt;mlr&#45;dev&#45;rds&#45;ns -->
<g id="edge2" class="edge">
<title>mlr&#45;dev&#45;rds&#45;sts&#45;&gt;mlr&#45;dev&#45;rds&#45;ns</title>
<path fill="none" stroke="black" d="M335.21,-215.58C322.68,-205.01 309.82,-192.8 299.53,-180 276.85,-151.8 284.97,-135.56 261.53,-108 252.83,-97.78 242.42,-88.13 231.74,-79.43"/>
<polygon fill="black" stroke="black" points="233.95,-76.72 223.93,-73.3 229.63,-82.23 233.95,-76.72"/>
</g>
<!-- mlr&#45;dev&#45;rds&#45;svc -->
<g id="node5" class="node">
<title>mlr&#45;dev&#45;rds&#45;svc</title>
<path fill="#e78f81" stroke="black" stroke-width="2" d="M446.05,-180C446.05,-180 321,-180 321,-180 315,-180 309,-174 309,-168 309,-168 309,-120 309,-120 309,-114 315,-108 321,-108 321,-108 446.05,-108 446.05,-108 452.05,-108 458.05,-114 458.05,-120 458.05,-120 458.05,-168 458.05,-168 458.05,-174 452.05,-180 446.05,-180"/>
<text text-anchor="middle" x="383.53" y="-148.2" font-family="Arial" font-size="14.00">mlr&#45;dev&#45;rds&#45;svc</text>
<text text-anchor="middle" x="383.53" y="-131.4" font-family="Arial" font-size="14.00">(kubernetes::Service)</text>
</g>
<!-- mlr&#45;dev&#45;rds&#45;sts&#45;&gt;mlr&#45;dev&#45;rds&#45;svc -->
<g id="edge3" class="edge">
<title>mlr&#45;dev&#45;rds&#45;sts&#45;&gt;mlr&#45;dev&#45;rds&#45;svc</title>
<path fill="none" stroke="black" d="M377.12,-215.7C376.81,-207.93 376.71,-199.57 376.82,-191.43"/>
<polygon fill="black" stroke="black" points="380.32,-191.75 377.09,-181.66 373.32,-191.56 380.32,-191.75"/>
</g>
<!-- mlr&#45;dev&#45;rds&#45;dpl&#45;snt -->
<g id="node4" class="node">
<title>mlr&#45;dev&#45;rds&#45;dpl&#45;snt</title>
<path fill="#b7e0ff" stroke="black" stroke-width="2" d="M210.06,-288C210.06,-288 56.99,-288 56.99,-288 50.99,-288 44.99,-282 44.99,-276 44.99,-276 44.99,-228 44.99,-228 44.99,-222 50.99,-216 56.99,-216 56.99,-216 210.06,-216 210.06,-216 216.06,-216 222.06,-222 222.06,-228 222.06,-228 222.06,-276 222.06,-276 222.06,-282 216.06,-288 210.06,-288"/>
<text text-anchor="middle" x="133.53" y="-256.2" font-family="Arial" font-size="14.00">mlr&#45;dev&#45;rds&#45;dpl&#45;snt</text>
<text text-anchor="middle" x="133.53" y="-239.4" font-family="Arial" font-size="14.00">(kubernetes::Deployment)</text>
</g>
<!-- mlr&#45;dev&#45;rds&#45;dpl&#45;snt&#45;&gt;mlr&#45;dev&#45;rds&#45;ns -->
<g id="edge4" class="edge">
<title>mlr&#45;dev&#45;rds&#45;dpl&#45;snt&#45;&gt;mlr&#45;dev&#45;rds&#45;ns</title>
<path fill="none" stroke="black" d="M95.29,-215.53C86.44,-205.04 78.24,-192.88 73.53,-180 62.53,-149.95 59.27,-136.65 73.53,-108 78.78,-97.46 86.42,-88.06 95.12,-79.84"/>
<polygon fill="black" stroke="black" points="97.37,-82.52 102.6,-73.3 92.76,-77.25 97.37,-82.52"/>
</g>
<!-- mlr&#45;dev&#45;rds&#45;dpl&#45;snt&#45;&gt;mlr&#45;dev&#45;rds&#45;cm&#45;snt -->
<g id="edge5" class="edge">
<title>mlr&#45;dev&#45;rds&#45;dpl&#45;snt&#45;&gt;mlr&#45;dev&#45;rds&#45;cm&#45;snt</title>
<path fill="none" stroke="black" d="M144.85,-215.7C147.4,-207.75 150.15,-199.19 152.81,-190.87"/>
<polygon fill="black" stroke="black" points="156.07,-192.17 155.79,-181.58 149.41,-190.04 156.07,-192.17"/>
</g>
<!-- mlr&#45;dev&#45;rds&#45;svc&#45;&gt;mlr&#45;dev&#45;rds&#45;ns -->
<g id="edge6" class="edge">
<title>mlr&#45;dev&#45;rds&#45;svc&#45;&gt;mlr&#45;dev&#45;rds&#45;ns</title>
<path fill="none" stroke="black" d="M311.3,-107.56C291.58,-97.88 270.06,-87.32 249.82,-77.38"/>
<polygon fill="black" stroke="black" points="251.56,-74.34 241.04,-73.08 248.48,-80.62 251.56,-74.34"/>
</g>
<!-- mlr&#45;dev&#45;rds&#45;svc&#45;&gt;mlr&#45;dev&#45;rds&#45;sts -->
<g id="edge7" class="edge">
<title>mlr&#45;dev&#45;rds&#45;svc&#45;&gt;mlr&#45;dev&#45;rds&#45;sts</title>
<path fill="none" stroke="black" d="M389.92,-180.14C390.24,-187.91 390.35,-196.26 390.23,-204.41"/>
<polygon fill="black" stroke="black" points="386.74,-204.1 389.97,-214.19 393.74,-204.29 386.74,-204.1"/>
</g>
<!-- mlr&#45;dev&#45;rds&#45;svc&#45;snt -->
<g id="node6" class="node">
<title>mlr&#45;dev&#45;rds&#45;svc&#45;snt</title>
<path fill="#e78f81" stroke="black" stroke-width="2" d="M137.05,-396C137.05,-396 12,-396 12,-396 6,-396 0,-390 0,-384 0,-384 0,-336 0,-336 0,-330 6,-324 12,-324 12,-324 137.05,-324 137.05,-324 143.05,-324 149.05,-330 149.05,-336 149.05,-336 149.05,-384 149.05,-384 149.05,-390 143.05,-396 137.05,-396"/>
<text text-anchor="middle" x="74.53" y="-364.2" font-family="Arial" font-size="14.00">mlr&#45;dev&#45;rds&#45;svc&#45;snt</text>
<text text-anchor="middle" x="74.53" y="-347.4" font-family="Arial" font-size="14.00">(kubernetes::Service)</text>
</g>
<!-- mlr&#45;dev&#45;rds&#45;svc&#45;snt&#45;&gt;mlr&#45;dev&#45;rds&#45;ns -->
<g id="edge8" class="edge">
<title>mlr&#45;dev&#45;rds&#45;svc&#45;snt&#45;&gt;mlr&#45;dev&#45;rds&#45;ns</title>
<path fill="none" stroke="black" d="M50.57,-323.62C44.43,-312.68 38.67,-300.26 35.53,-288 15.47,-209.82 13.69,-174.43 59.53,-108 67.04,-97.11 76.83,-87.46 87.44,-79.07"/>
<polygon fill="black" stroke="black" points="89.37,-82 95.3,-73.22 85.19,-76.38 89.37,-82"/>
</g>
<!-- mlr&#45;dev&#45;rds&#45;svc&#45;snt&#45;&gt;mlr&#45;dev&#45;rds&#45;dpl&#45;snt -->
<g id="edge9" class="edge">
<title>mlr&#45;dev&#45;rds&#45;svc&#45;snt&#45;&gt;mlr&#45;dev&#45;rds&#45;dpl&#45;snt</title>
<path fill="none" stroke="black" d="M94.17,-323.7C98.75,-315.48 103.69,-306.61 108.46,-298.03"/>
<polygon fill="black" stroke="black" points="111.43,-299.9 113.23,-289.46 105.31,-296.5 111.43,-299.9"/>
</g>
</g>
</svg>
